<svg width="56" height="56" viewBox="0 0 56 56" fill="none" xmlns="http://www.w3.org/2000/svg">
<path d="M42.8493 40.5159L28 55.3652L13.1507 40.5159C10.2138 37.579 8.21377 33.8371 7.4035 29.7635C6.59323 25.69 7.00912 21.4676 8.59856 17.6303C10.188 13.7931 12.8796 10.5134 16.3331 8.20587C19.7865 5.89837 23.8466 4.66675 28 4.66675C32.1534 4.66675 36.2135 5.89837 39.667 8.20587C43.1204 10.5134 45.812 13.7931 47.4015 17.6303C48.9909 21.4676 49.4068 25.69 48.5965 29.7635C47.7863 33.8371 45.7862 37.579 42.8493 40.5159ZM28 30.3332C29.2377 30.3332 30.4247 29.8416 31.2998 28.9664C32.175 28.0912 32.6667 26.9042 32.6667 25.6666C32.6667 24.4289 32.175 23.2419 31.2998 22.3667C30.4247 21.4916 29.2377 20.9999 28 20.9999C26.7623 20.9999 25.5753 21.4916 24.7002 22.3667C23.825 23.2419 23.3333 24.4289 23.3333 25.6666C23.3333 26.9042 23.825 28.0912 24.7002 28.9664C25.5753 29.8416 26.7623 30.3332 28 30.3332Z" fill="#FF7129"/>
</svg>
